<svg xmlns="http://www.w3.org/2000/svg" viewBox="0 0 64 64"><path d="M43.7 36.4h8.4c4.5 0 8.1-3.6 8.1-8.1 0-2.2-.8-4.2-2.4-5.7-1.3-1.3-3-2.1-4.8-2.3-.2-1.5-.9-2.9-2-4-1.3-1.3-3.1-2-4.9-2-1 0-1.9.2-2.8.6-1.5-4.2-5.4-7-9.9-7-4.3 0-8.1 2.6-9.7 6.4-1.7-1.2-3.8-1.9-6-1.9-5.8 0-10.5 4.7-10.5 10.5 0 .6.1 1.3.2 1.9-4.2.4-7.4 3.9-7.4 8.1 0 2.2.8 4.2 2.4 5.7C3.9 40.1 5.9 41 8.1 41h28.3c3.2 0 6-1.9 7.3-4.6zM33.4 9.8c4 0 7.5 2.7 8.4 6.7.1.3.3.6.6.7.3.1.6.1.9-.1.8-.6 1.8-.9 2.8-.9 1.3 0 2.6.5 3.5 1.5.9.9 1.5 2.2 1.5 3.5 0 .5.4 1 1 1 1.6 0 3.2.6 4.4 1.8 1.2 1.2 1.8 2.7 1.8 4.4 0 3.4-2.8 6.2-6.2 6.2h-7.8c.1-.5.2-1.1.2-1.6 0-2.2-.8-4.2-2.4-5.7-1.3-1.3-3-2.1-4.8-2.3-.5-3.4-3.4-6-6.9-6-1 0-1.9.2-2.8.6-.5-1.4-1.3-2.7-2.4-3.8 1.3-3.7 4.5-6 8.2-6zm3 29.3H8.1c-1.6 0-3.2-.6-4.4-1.8-1.2-1.2-1.8-2.7-1.8-4.4 0-3.4 2.8-6.2 6.2-6.2h.5c.3 0 .6-.1.8-.4.2-.2.2-.6.1-.9-.2-.8-.4-1.7-.4-2.5 0-4.7 3.9-8.6 8.6-8.6 4 0 7.5 2.8 8.4 6.7.1.3.3.6.6.7.3.1.6.1.9-.1.8-.6 1.8-.9 2.8-.9 2.8 0 5 2.2 5 5 0 .5.4 1 1 1 1.6 0 3.2.6 4.4 1.8 1.2 1.2 1.8 2.7 1.8 4.4 0 3.4-2.8 6.2-6.2 6.2z"/><path d="M62.5 47.4c-.8-.8-1.7-1.3-2.8-1.4-.4-2-2.2-3.6-4.4-3.6-.5 0-1 .1-1.4.2-1-2.4-3.4-4-6-4-3.6 0-6.6 2.9-6.6 6.6v.8c-2.4.4-4.2 2.5-4.2 5.1 0 1.4.5 2.7 1.5 3.6 1 1 2.3 1.5 3.6 1.5h16.6c2.8 0 5.1-2.3 5.1-5.1.1-1.4-.4-2.7-1.4-3.7zm-3.6 6.8H42.3c-.9 0-1.7-.3-2.3-.9-.6-.6-.9-1.4-.9-2.3 0-1.8 1.4-3.2 3.2-3.2h.3c.3 0 .6-.1.8-.4.2-.2.2-.6.1-.9-.1-.4-.2-.9-.2-1.4 0-2.6 2.1-4.6 4.6-4.6 2.1 0 4 1.5 4.5 3.6.1.3.3.6.6.7.3.1.6.1.9-.1.4-.3.9-.4 1.4-.4 1.4 0 2.5 1.1 2.5 2.5 0 .5.4 1 1 1 .9 0 1.7.3 2.3.9.6.6.9 1.4.9 2.3.1 1.8-1.4 3.2-3.1 3.2z"/></svg>