<svg height="64" width="64" version="1.1" id="Capa_1" xmlns="http://www.w3.org/2000/svg" viewBox="0 0 473.628 473.628" xml:space="preserve" fill="#000"><path style="fill:#010002" d="M469.441 231.941c-4.235-4.958-105.314-121.213-232.615-121.213-127.326 0-228.405 116.255-232.64 121.213L0 236.826l4.186 4.885C8.446 246.645 109.5 362.9 236.826 362.9c127.302 0 228.372-116.255 232.615-121.189l4.186-4.885-4.186-4.885zm-232.615 44.203c-21.72 0-39.342-17.615-39.342-39.334 0-21.695 17.615-39.318 39.342-39.318s39.31 17.615 39.31 39.318c.008 21.719-17.582 39.334-39.31 39.334z" id="SVGRepo_iconCarrier"/></svg>